<svg xmlns="http://www.w3.org/2000/svg" width="53.188" height="53.138" viewBox="0 0 53.188 53.138">
  <g id="グループ_71" data-name="グループ 71" transform="translate(0)">
    <path id="パス_28" data-name="パス 28" d="M835.3,280.648l1.7-.983L815.9,243.12l-1.7.981,10,17.314-24.9,14.374-10-17.314-1.7.984L808.7,296l1.7-.981L800.28,277.491l24.9-14.374Z" transform="translate(-785.752 -242.866)" fill="#4aa335"/>
    <path id="パス_29" data-name="パス 29" d="M835.561,269.507l1.285-2.224-36.546-21.1-1.285,2.222,17.052,9.847-14.072,24.373-17.052-9.847-1.284,2.227,36.546,21.1,1.286-2.225-17.27-9.971,14.072-24.372Z" transform="translate(-783.657 -244.494)" fill="#f99900"/>
    <path id="パス_30" data-name="パス 30" d="M816.92,296.129V266.473h20.7v-1.057h-42.2v1.057h20.446v29.656H795.416v1.057h42.2v-1.057Z" transform="translate(-789.906 -254.713)" fill="#d6006c"/>
    <path id="パス_31" data-name="パス 31" d="M836.124,273.49,818.4,283.723l-14.6-25.287L821.522,248.2l-.756-1.311-36.545,21.1.756,1.307,17.511-10.108,14.6,25.288L799.578,294.59l.756,1.308,36.546-21.1Z" transform="translate(-783.957 -244.869)" fill="#0070c3"/>
    <path id="パス_32" data-name="パス 32" d="M835.162,257.934,825.078,275.4l-24.767-14.3L810.4,243.635l-1.833-1.057-21.1,36.546,1.832,1.057,9.958-17.249,24.765,14.3-9.958,17.25,1.831,1.056,21.1-36.543Z" transform="translate(-785.68 -242.578)" fill="#dc0012"/>
    <path id="パス_33" data-name="パス 33" d="M834.894,254.557V274.02H807.2V254.557H804.18v42.2H807.2V277.042h27.691v19.714h3.023v-42.2Z" transform="translate(-794.562 -248.943)" fill="#1a1311"/>
  </g>
</svg>
